<svg xmlns="http://www.w3.org/2000/svg" viewBox="0 0 120 130" fill="none">
  <ellipse cx="60" cy="92" rx="48" ry="28" fill="#d4621c"></ellipse>
  <rect x="80" y="100" width="12" height="26" rx="5" fill="#d4621c"></rect>
  <rect x="28" y="100" width="12" height="26" rx="5" fill="#d4621c"></rect>
  <path d="M108 90 Q132 80 126 60 Q116 64 116 80 Q104 80 100 88" fill="#d4621c"></path>
  <circle cx="60" cy="54" r="30" fill="#d4621c"></circle>
  <path d="M34 38 L40 14 L52 32 Z" fill="#d4621c"></path>
  <path d="M86 38 L80 14 L68 32 Z" fill="#d4621c"></path>
  <path d="M38 32 L42 22 L48 30 Z" fill="#f08438"></path>
  <path d="M82 32 L78 22 L72 30 Z" fill="#f08438"></path>
  <ellipse cx="48" cy="52" rx="4" ry="5" fill="#0d1726"></ellipse>
  <ellipse cx="72" cy="52" rx="4" ry="5" fill="#0d1726"></ellipse>
  <ellipse cx="48" cy="50" rx="1.4" ry="2.5" fill="#22c55e"></ellipse>
  <ellipse cx="72" cy="50" rx="1.4" ry="2.5" fill="#22c55e"></ellipse>
  <path d="M58 60 L62 60 L60 64 Z" fill="#0d1726"></path>
  <path d="M52 64 L40 62 M52 66 L40 68 M68 64 L80 62 M68 66 L80 68" stroke="#0d1726" stroke-width="1" stroke-linecap="round"></path>
  <path d="M60 64 Q56 70 52 68 M60 64 Q64 70 68 68" stroke="#0d1726" stroke-width="1.2" stroke-linecap="round" fill="none"></path>
</svg>